<mxfile host="app.diagrams.net" modified="2023-01-19T21:36:34.221Z" agent="5.0 (Macintosh; Intel Mac OS X 10_15_7) AppleWebKit/537.36 (KHTML, like Gecko) Chrome/108.0.0.0 Safari/537.36" version="20.7.4" etag="TywIqnnSBE8m20XEyhO7" type="github">
  <diagram id="h_MF3vdllRQitfquvE4h" name="Page-1">
    <mxGraphModel dx="1034" dy="418" grid="1" gridSize="10" guides="1" tooltips="1" connect="1" arrows="1" fold="1" page="1" pageScale="1" pageWidth="827" pageHeight="1169" math="0" shadow="0">
      <root>
        <mxCell id="0" />
        <mxCell id="1" parent="0" />
        <mxCell id="S_oFghBILawp2eDshSNd-1" value="Certificate Authority (CA)" style="text;html=1;strokeColor=none;fillColor=none;align=center;verticalAlign=middle;whiteSpace=wrap;rounded=0;" vertex="1" parent="1">
          <mxGeometry x="160" y="150" width="140" height="30" as="geometry" />
        </mxCell>
        <mxCell id="S_oFghBILawp2eDshSNd-2" value="digital certificate" style="text;html=1;strokeColor=none;fillColor=none;align=center;verticalAlign=middle;whiteSpace=wrap;rounded=0;" vertex="1" parent="1">
          <mxGeometry x="160" y="240" width="140" height="30" as="geometry" />
        </mxCell>
        <mxCell id="S_oFghBILawp2eDshSNd-3" value="Athenz" style="rounded=0;whiteSpace=wrap;html=1;" vertex="1" parent="1">
          <mxGeometry x="420" y="90" width="90" height="30" as="geometry" />
        </mxCell>
      </root>
    </mxGraphModel>
  </diagram>
</mxfile>
